<?xml version="1.0" encoding="UTF-8"?>
<!DOCTYPE svg PUBLIC "-//W3C//DTD SVG 1.1//EN" "http://www.w3.org/Graphics/SVG/1.1/DTD/svg11.dtd">
<svg xmlns="http://www.w3.org/2000/svg" version="1.1" width="418px" height="411px" style="shape-rendering:geometricPrecision; text-rendering:geometricPrecision; image-rendering:optimizeQuality; fill-rule:evenodd; clip-rule:evenodd" xmlns:xlink="http://www.w3.org/1999/xlink">
<g><path style="opacity:1" fill="#fefefe" d="M -0.5,-0.5 C 122.833,-0.5 246.167,-0.5 369.5,-0.5C 385.38,8.54455 398.213,20.8779 408,36.5C 411.778,44.0374 414.945,51.704 417.5,59.5C 417.5,155.5 417.5,251.5 417.5,347.5C 408.797,376.872 390.463,397.872 362.5,410.5C 258.5,410.5 154.5,410.5 50.5,410.5C 27.1667,399.833 10.1667,382.833 -0.5,359.5C -0.5,239.5 -0.5,119.5 -0.5,-0.5 Z"/></g>
<g><path style="opacity:1" fill="#f8f8f8" d="M 369.5,-0.5 C 385.5,-0.5 401.5,-0.5 417.5,-0.5C 417.5,19.5 417.5,39.5 417.5,59.5C 414.945,51.704 411.778,44.0374 408,36.5C 398.213,20.8779 385.38,8.54455 369.5,-0.5 Z"/></g>
<g><path style="opacity:1" fill="#e7467c" d="M 360.5,197.5 C 360.5,198.5 360.5,199.5 360.5,200.5C 303.833,200.5 247.167,200.5 190.5,200.5C 190.654,196.975 189.321,194.141 186.5,192C 162.928,176.391 139.594,160.558 116.5,144.5C 116.5,118.833 116.5,93.1667 116.5,67.5C 121.117,53.866 130.117,50.0327 143.5,56C 215.084,101.042 286.584,146.208 358,191.5C 359.559,193.217 360.392,195.217 360.5,197.5 Z"/></g>
<g><path style="opacity:1" fill="#e0c3cd" d="M 116.5,67.5 C 116.5,93.1667 116.5,118.833 116.5,144.5C 115.508,144.672 114.842,144.338 114.5,143.5C 115.167,118.167 115.833,92.8333 116.5,67.5 Z"/></g>
<g><path style="opacity:1" fill="#8c193f" d="M 114.5,143.5 C 114.842,144.338 115.508,144.672 116.5,144.5C 139.594,160.558 162.928,176.391 186.5,192C 189.321,194.141 190.654,196.975 190.5,200.5C 190.262,204.138 188.596,206.971 185.5,209C 162.434,224.523 139.434,240.023 116.5,255.5C 102.862,264.657 89.1953,273.823 75.5,283C 71.7186,285.035 68.0519,284.868 64.5,282.5C 63.4884,281.128 62.4884,279.795 61.5,278.5C 61.5,226.833 61.5,175.167 61.5,123.5C 63.167,118.004 66.8337,115.504 72.5,116C 86.6994,124.928 100.699,134.095 114.5,143.5 Z"/></g>
<g><path style="opacity:1" fill="#bb1948" d="M 190.5,200.5 C 247.167,200.5 303.833,200.5 360.5,200.5C 360.416,203.327 359.75,205.994 358.5,208.5C 287.528,253.323 216.528,298.156 145.5,343C 137.268,349.117 129.268,348.951 121.5,342.5C 118.776,339.718 117.109,336.385 116.5,332.5C 116.5,306.833 116.5,281.167 116.5,255.5C 139.434,240.023 162.434,224.523 185.5,209C 188.596,206.971 190.262,204.138 190.5,200.5 Z"/></g>
<g><path style="opacity:1" fill="#d7d7d7" d="M 360.5,197.5 C 361.461,199.265 361.795,201.265 361.5,203.5C 361.53,215.263 355.863,222.763 344.5,226C 339.304,229.744 334.137,233.577 329,237.5C 313.462,246.884 297.962,256.051 282.5,265C 279.086,269.083 274.753,271.583 269.5,272.5C 266.089,275.266 262.423,277.766 258.5,280C 255.676,283.583 252.01,285.916 247.5,287C 243.061,291.391 238.061,295.057 232.5,298C 230.444,298.311 228.444,298.811 226.5,299.5C 223.312,301.932 220.312,304.599 217.5,307.5C 206.856,314.132 196.189,320.799 185.5,327.5C 181.819,328.861 178.153,330.194 174.5,331.5C 174.67,332.822 174.337,333.989 173.5,335C 170.112,337.361 166.446,339.194 162.5,340.5C 160.006,342.909 157.34,345.076 154.5,347C 148.163,350.371 141.663,353.204 135,355.5C 120.823,354.482 114.323,346.815 115.5,332.5C 115.833,332.5 116.167,332.5 116.5,332.5C 117.109,336.385 118.776,339.718 121.5,342.5C 121.357,344.262 121.691,345.929 122.5,347.5C 129.693,352.575 137.027,352.742 144.5,348C 211.332,305.75 278.332,263.75 345.5,222C 351.405,218.93 355.738,214.43 358.5,208.5C 359.75,205.994 360.416,203.327 360.5,200.5C 360.5,199.5 360.5,198.5 360.5,197.5 Z"/></g>
<g><path style="opacity:1" fill="#e9e7e8" d="M 61.5,123.5 C 61.5,175.167 61.5,226.833 61.5,278.5C 60.9028,284.226 62.9028,288.726 67.5,292C 69.5,292.667 71.5,292.667 73.5,292C 85.6959,284.738 97.3626,276.738 108.5,268C 110.786,266.336 113.119,266.17 115.5,267.5C 115.5,289.167 115.5,310.833 115.5,332.5C 114.323,346.815 120.823,354.482 135,355.5C 141.663,353.204 148.163,350.371 154.5,347C 157.34,345.076 160.006,342.909 162.5,340.5C 166.446,339.194 170.112,337.361 173.5,335C 174.337,333.989 174.67,332.822 174.5,331.5C 178.153,330.194 181.819,328.861 185.5,327.5C 196.189,320.799 206.856,314.132 217.5,307.5C 220.312,304.599 223.312,301.932 226.5,299.5C 228.444,298.811 230.444,298.311 232.5,298C 238.061,295.057 243.061,291.391 247.5,287C 252.01,285.916 255.676,283.583 258.5,280C 262.423,277.766 266.089,275.266 269.5,272.5C 274.753,271.583 279.086,269.083 282.5,265C 297.962,256.051 313.462,246.884 329,237.5C 334.137,233.577 339.304,229.744 344.5,226C 355.863,222.763 361.53,215.263 361.5,203.5C 363.587,210.631 362.254,217.131 357.5,223C 344.697,230.042 332.03,237.375 319.5,245C 316.833,246.333 314.833,248.333 313.5,251C 304.966,255.961 296.299,260.628 287.5,265C 283.203,267.304 279.536,270.304 276.5,274C 233.182,300.807 190.182,327.807 147.5,355C 134.076,362.956 123.243,360.456 115,347.5C 114.824,322.124 114.324,296.791 113.5,271.5C 110.02,271.082 107.353,272.582 105.5,276C 103.744,276.202 102.078,276.702 100.5,277.5C 91.8407,283.832 82.8407,289.665 73.5,295C 67.035,296.018 62.535,293.518 60,287.5C 59.3333,235.167 59.3333,182.833 60,130.5C 60.1862,127.964 60.6862,125.631 61.5,123.5 Z"/></g>
<g><path style="opacity:1" fill="#d4d4d4" d="M 115.5,267.5 C 113.119,266.17 110.786,266.336 108.5,268C 97.3626,276.738 85.6959,284.738 73.5,292C 71.5,292.667 69.5,292.667 67.5,292C 62.9028,288.726 60.9028,284.226 61.5,278.5C 62.4884,279.795 63.4884,281.128 64.5,282.5C 65.3305,287.824 68.3305,289.658 73.5,288C 85.3378,280.582 97.0045,272.915 108.5,265C 110.65,263.589 112.984,262.755 115.5,262.5C 115.5,264.167 115.5,265.833 115.5,267.5 Z"/></g>
<g><path style="opacity:1" fill="#c8c1c3" d="M 116.5,255.5 C 116.5,281.167 116.5,306.833 116.5,332.5C 116.167,332.5 115.833,332.5 115.5,332.5C 115.5,310.833 115.5,289.167 115.5,267.5C 115.5,265.833 115.5,264.167 115.5,262.5C 112.984,262.755 110.65,263.589 108.5,265C 97.0045,272.915 85.3378,280.582 73.5,288C 68.3305,289.658 65.3305,287.824 64.5,282.5C 68.0519,284.868 71.7186,285.035 75.5,283C 89.1953,273.823 102.862,264.657 116.5,255.5 Z"/></g>
<g><path style="opacity:1" fill="#c5c3c4" d="M 358.5,208.5 C 355.738,214.43 351.405,218.93 345.5,222C 278.332,263.75 211.332,305.75 144.5,348C 137.027,352.742 129.693,352.575 122.5,347.5C 121.691,345.929 121.357,344.262 121.5,342.5C 129.268,348.951 137.268,349.117 145.5,343C 216.528,298.156 287.528,253.323 358.5,208.5 Z"/></g>
<g><path style="opacity:1" fill="#f8f8f8" d="M 417.5,347.5 C 417.5,368.5 417.5,389.5 417.5,410.5C 399.167,410.5 380.833,410.5 362.5,410.5C 390.463,397.872 408.797,376.872 417.5,347.5 Z"/></g>
<g><path style="opacity:1" fill="#f8f8f8" d="M -0.5,359.5 C 10.1667,382.833 27.1667,399.833 50.5,410.5C 33.5,410.5 16.5,410.5 -0.5,410.5C -0.5,393.5 -0.5,376.5 -0.5,359.5 Z"/></g>
</svg>
